<svg xmlns="http://www.w3.org/2000/svg" viewBox="0 0 128 128"><path d="M 20 0 h 88 a 20 20 0 0 1 20 20 v 88 a 20 20 0 0 1 -20 20 h -88 a 20 20 0 0 1 -20 -20 v -88 a 20 20 0 0 1 20 -20 v 10 a 10 10 0 0 0 -10 10 v 88 a 10 10 0 0 0 10 10 h 88 a 10 10 0 0 0 10 -10 v -88 a 10 10 0 0 0 -10 -10 h -88 z M 64 74 l 30 30 a 5 5 0 0 0 10 -10 l -30 -30 l 30 -30 a 5 5 0 0 0 -10 -10 l -30 30 l -30 -30 a 5 5 0 0 0 -10 10 l 30 30 l -30 30 a 5 5 0 0 0 10 10 l 30 -30 z " fill="#000000" stroke="#000000" stroke-width="0" /></svg>
